<svg xmlns="http://www.w3.org/2000/svg" viewBox="-1 -1 34 34">
  <desc>
    Music Radio Stereo Streamline Icon: https://streamlinehq.com
  </desc>
  <title>music-radio-stereo</title>
  <g>
    <g class="boombox" transform="translate(0, 0.5)">
      <path d="M30.48 19.81H32v9.15h-1.52Z" fill="currentColor" stroke-width="1"></path>
      <path d="M28.96 28.96h1.52v1.52h-1.52Z" fill="currentColor" stroke-width="1"></path>
      <path d="M28.96 18.29h1.52v1.52h-1.52Z" fill="currentColor" stroke-width="1"></path>
      <path d="m27.43 24.38 -1.52 0 0 1.53 1.52 0 0 1.52 1.53 0 0 -4.57 -1.53 0 0 1.52z"
        fill="currentColor" stroke-width="1"></path>
      <path d="M3.05 30.48h25.91V32H3.05Z" fill="currentColor" stroke-width="1"></path>
      <path d="m25.91 25.91 -1.53 0 0 1.52 -1.52 0 0 1.53 4.57 0 0 -1.53 -1.52 0 0 -1.52z"
        fill="currentColor" stroke-width="1"></path>
      <path d="m24.38 24.38 1.53 0 0 -1.52 1.52 0 0 -1.52 -4.57 0 0 1.52 1.52 0 0 1.52z"
        fill="currentColor" stroke-width="1"></path>
      <path d="m24.38 25.91 0 -1.53 -1.52 0 0 -1.52 -1.52 0 0 4.57 1.52 0 0 -1.52 1.52 0z"
        fill="currentColor" stroke-width="1"></path>
      <path d="M22.86 12.19h1.52v1.53h-1.52Z" fill="currentColor" stroke-width="1"></path>
      <path d="M10.67 19.81h10.67v1.53H10.67Z" fill="currentColor" stroke-width="1"></path>
      <path d="M12.19 22.86v4.57h7.62v-4.57Zm3.05 3.05h-1.52v-1.53h1.52Zm3.05 0h-1.52v-1.53h1.52Z"
        fill="currentColor" stroke-width="1"></path>
      <path d="M9.15 10.67h13.71v1.52H9.15Z" fill="currentColor" stroke-width="1"></path>
      <path d="m9.15 24.38 -1.53 0 0 1.53 1.53 0 0 1.52 1.52 0 0 -4.57 -1.52 0 0 1.52z"
        fill="currentColor" stroke-width="1"></path>
      <path d="M7.62 12.19h1.53v1.53H7.62Z" fill="currentColor" stroke-width="1"></path>
      <path d="m7.62 25.91 -1.52 0 0 1.52 -1.52 0 0 1.53 4.57 0 0 -1.53 -1.53 0 0 -1.52z"
        fill="currentColor" stroke-width="1"></path>
      <path d="m6.1 24.38 1.52 0 0 -1.52 1.53 0 0 -1.52 -4.57 0 0 1.52 1.52 0 0 1.52z"
        fill="currentColor" stroke-width="1"></path>
      <path d="m6.1 25.91 0 -1.53 -1.52 0 0 -1.52 -1.53 0 0 4.57 1.53 0 0 -1.52 1.52 0z"
        fill="currentColor" stroke-width="1"></path>
      <path
        d="m9.15 18.29 0 1.52 1.52 0 0 -1.52 10.67 0 0 1.52 1.52 0 0 -1.52 6.1 0 0 -1.53 -3.05 0 0 -3.04 -1.53 0 0 3.04 -1.52 0 0 -1.52 -3.05 0 0 1.52 -1.52 0 0 -1.52 -4.57 0 0 1.52 -1.53 0 0 -1.52 -3.04 0 0 1.52 -1.53 0 0 -3.04 -1.52 0 0 3.04 -3.05 0 0 1.53 6.1 0z"
        fill="currentColor" stroke-width="1"></path>
      <path d="M1.53 28.96h1.52v1.52H1.53Z" fill="currentColor" stroke-width="1"></path>
      <path d="M1.53 18.29h1.52v1.52H1.53Z" fill="currentColor" stroke-width="1"></path>
      <path d="M0 19.81h1.53v9.15H0Z" fill="currentColor" stroke-width="1"></path>
    </g>

    <g class="movables" transform="translate(0, -0.5)">
      <g class="particles">
        <path d="M0 1.53h1.53v1.52H0Z" fill="currentColor" stroke-width="1"></path>
        <path d="M28.96 10.67h1.52v1.52h-1.52Z" fill="currentColor" stroke-width="1"></path>
        <path d="M21.34 1.53h1.52v1.52h-1.52Z" fill="currentColor" stroke-width="1"></path>

        <animateTransform
          attributeName="transform"
          type="translate"
          values="0 2; 0 0; 0 2"
          dur="1s"
          begin="0s"
          repeatCount="indefinite"
          keyTimes="0; 0.5; 1"
          calcMode="discrete"
        />
      </g>

      <g class="stars">
        <g class="star">
          <path d="M12.19 1.53h1.53v1.52h-1.53Z" fill="currentColor" stroke-width="1"></path>
          <path d="M10.67 3.05h1.52v1.52h-1.52Z" fill="currentColor" stroke-width="1"></path>
          <path d="M10.67 0h1.52v1.53h-1.52Z" fill="currentColor" stroke-width="1"></path>
          <path d="M9.15 1.53h1.52v1.52H9.15Z" fill="currentColor" stroke-width="1"></path>
        </g>

        <g class="star">
          <path
            d="m19.81 9.15 0 -1.53 1.53 0 0 -1.52 -1.53 0 0 -1.53 -1.52 0 0 1.53 -1.52 0 0 1.52 1.52 0 0 1.53 1.52 0z"
            fill="currentColor" stroke-width="1"></path>
        </g>

        <animateTransform
          attributeName="transform"
          type="translate"
          values="0 0; 1 1; 0 0"
          dur="1s"
          begin="0s"
          repeatCount="indefinite"
          keyTimes="0; 0.5; 1"
          calcMode="discrete"
        />
      </g>

      <g class="notes">
        <g class="note">
          <path d="m3.05 4.57 0 4.58 -1.52 0 0 3.04 3.05 0 0 -6.09 1.52 0 0 -1.53 -3.05 0z"
            fill="currentColor"
            stroke-width="1"></path>
          <path d="M6.1 6.1h1.52v1.52H6.1Z" fill="currentColor" stroke-width="1"></path>
        </g>

        <g class="note">
          <path d="m28.96 1.53 -1.53 0 0 3.04 -1.52 0 0 3.05 3.05 0 0 -6.09z" fill="currentColor"
            stroke-width="1"></path>
        </g>

        <animateTransform
          attributeName="transform"
          type="translate"
          values="0 1; 1 2.5; 2 1; 1 -1; 0 0"
          dur="2s"
          begin="0s"
          repeatCount="indefinite"
          keyTimes="0; 0.25; 0.5; 0.75; 1"
          calcMode="discrete"
        />
      </g>
    </g>
  </g>
</svg>